<?xml version="1.0" encoding="utf-8"?>
<!-- Generator: Adobe Illustrator 21.1.0, SVG Export Plug-In . SVG Version: 6.00 Build 0)  -->
<!DOCTYPE svg PUBLIC "-//W3C//DTD SVG 1.1//EN" "http://www.w3.org/Graphics/SVG/1.1/DTD/svg11.dtd">
<svg version="1.1" id="Layer_1" xmlns="http://www.w3.org/2000/svg" xmlns:xlink="http://www.w3.org/1999/xlink" x="0px" y="0px"
	 viewBox="0 0 199.6 385" style="enable-background:new 0 0 199.6 385;" xml:space="preserve">
<style type="text/css">
	.st0{fill:#FFFFFF;}
</style>
<g id="l6ME8T.tif">
	<g>
		<g>
			<path class="st0" d="M114.4,385c-3.2-11.6-12.5-16.1-22.6-19.7c-4-1.5-8.2-2.8-12-4.8c-12-6.4-17.3-17.3-14.4-30.5
				c1.8-8.5,5.3-16.5,11.6-22.8c1.9-1.9,4.7-2.8,7.6-4.5c-0.8,8.8-1.8,16.2-2.1,23.6c-0.4,10.6,3.7,16.1,14,19.7
				c6.9,2.4,13.1,5.7,17.9,11.3c6.3,7.5,7.2,20.6,1.9,27.9C115.7,385,115.1,385,114.4,385z"/>
		</g>
		<g>
			<path class="st0" d="M98.4,0c1.9,0.6,3.8,1.1,5.6,1.8c6.7,2.5,8.7,5.2,8.6,12.2c-0.2,7.6-0.7,15.2-1.1,23.2
				c-11.9,0-23.4,0-36.1,0c0-9.1-0.5-18.8,0.2-28.5C76,3.7,80.9,1.6,85.4,0C89.7,0,94.1,0,98.4,0z"/>
		</g>
		<g>
			<path class="st0" d="M110.7,78c-0.5,6.9-1,13.7-1.6,21.5c-8.9-2.4-17.5-4.8-26.1-7.2C80.4,91.6,79.1,90,79,87
				c-0.3-5.9-1.1-11.8-1.7-17.8c-11.4,3.4-13,22.6-4.9,30.2c7.5,7,17,8.3,26.4,10.7c8,2.1,16.1,4.4,23.3,8.2
				c11.7,6.1,15.5,15.6,12.4,28.5c-2.1,8.9-6.8,16.6-13.6,22.8c-1.7,1.5-3.9,2.5-5.9,3.7c-0.4-0.4-0.8-0.7-1.1-1.1
				c1.1-4.7,2.5-9.4,3.3-14.2c0.7-3.7,1.1-7.6,1.1-11.4c0-6.4-3.4-10-11.2-11.7c0,9.5,0.1,18.7,0,28c0,4.2-0.4,8.3-0.4,12.5
				c0,2.8-1.1,4.1-3.9,3.5c-5.3-1.2-10.8-2.2-15.9-4c-1.6-0.5-3.4-3.2-3.5-5c-1-12.6-1.7-25.2-2.1-37.9c-0.1-3.4-1.9-4.3-4.6-5.4
				c-6.7-2.8-13.9-5.1-19.7-9.3C44.8,108.4,42.5,95.1,43.7,81C45.9,55.4,67,44.4,85.3,44.6c13.1,0.1,24.9,2.9,35.5,10.9
				c2.3,1.7,5.9,2,9,2.2c13,0.8,22.8,6.9,29.2,18c3.1,5.4,5.6,11.3,8.2,17c1.1,2.4,0.6,4.7-2.4,4.6c-10.8,0-21.6,0.3-32.2-0.7
				c-7.2-0.7-12.6-5.6-16.1-12.2c-1.3-2.4-3.1-4.5-4.6-6.8C111.4,77.8,111.1,77.9,110.7,78z"/>
		</g>
		<g>
			<path class="st0" d="M76.5,147.7c-1.3,8.2-2.5,14.7-3.5,21.2c-1.5,9.8,1.5,15.3,11.1,18.3c6.9,2.2,14.3,3.1,21.3,5
				c4.8,1.3,9.6,2.8,14,5.1c10.9,5.6,15.5,14.5,13,26.4c-2.3,11.1-7.7,20.9-16.5,28.3c-1.1,0.9-2.5,1.4-4.9,2.8
				c0.5-3,0.8-4.8,1.1-6.6c1.1-6.3,2.8-12.6,3.4-19c0.7-7.5-2.6-11.6-10.3-13.8c-0.6,14.2-1.3,28.2-1.9,42c-0.8,0.3-1.1,0.6-1.4,0.6
				c-15.7-3.3-14.1-1.7-14.8-17.2c-0.5-9.3-1.1-18.6-2.1-27.8c-0.1-1.4-2.1-2.9-3.5-3.7c-5-2.5-10.5-4.2-15.3-7.1
				c-9.4-5.8-13.3-14.5-11-25.6c2.1-10,6.8-18.7,14.8-25.3C71.5,149.8,73.6,149.2,76.5,147.7z"/>
		</g>
		<g>
			<path class="st0" d="M107.4,331.5c1.6-8.1,3.1-15.3,4.5-22.6c1.5-7.4-1.4-12.4-9-15.2c-0.8,14.4-1.6,28.8-2.4,43.1
				c-6.1,0.1-7.8-1.3-8.2-6.6c-0.8-12.6-1.6-25.2-2.1-37.8c-0.1-2.8-0.8-4.1-3.8-4.6c-3.1-0.5-6.1-1.7-8.9-3
				c-16.5-7.3-20.4-19.1-15.8-35.5c2.1-7.7,6.5-14.6,12.9-19.8c1.6-1.3,3.8-2,6.7-3.5c-1.2,7-2.1,12.5-3.1,18
				c-2.7,14.5,1.1,20.7,15.2,24.8c5.1,1.5,10.3,2.7,15.3,4.4c3,1,5.8,2.5,8.5,4.2c9.8,6.2,13.1,15.9,9.3,26.8
				C123,314.3,114.1,327.3,107.4,331.5z"/>
		</g>
	</g>
</g>
<g>
	<path class="st0" d="M0,158v-1.3h1.5c1.3,0,2.4-0.2,3.1-0.6c0.7-0.4,1.2-1,1.6-1.7c0.2-0.5,0.3-1.9,0.3-4.3v-30.5
		c0-2.4-0.1-3.9-0.4-4.4c-0.3-0.6-0.8-1.1-1.5-1.6c-0.8-0.4-1.8-0.7-3.1-0.7H0v-1.3h20.7c5.5,0,10,0.8,13.4,2.3
		c4.1,1.8,7.3,4.6,9.4,8.4c2.1,3.7,3.2,8,3.2,12.7c0,3.3-0.5,6.3-1.6,9c-1,2.7-2.4,5-4.1,6.8c-1.7,1.8-3.6,3.2-5.8,4.3
		c-2.2,1.1-4.8,1.9-8,2.5c-1.4,0.3-3.6,0.4-6.6,0.4H0z M17.7,114.3v36.2c0,1.9,0.1,3.1,0.3,3.5c0.2,0.4,0.5,0.8,0.9,1
		c0.6,0.3,1.5,0.5,2.7,0.5c3.8,0,6.7-1.3,8.7-3.9c2.7-3.5,4.1-9,4.1-16.3c0-5.9-0.9-10.7-2.8-14.3c-1.5-2.8-3.4-4.7-5.7-5.7
		C24.2,114.6,21.5,114.3,17.7,114.3z"/>
	<path class="st0" d="M174.7,111c7.4-0.3,13.4,1.9,18,6.5c4.6,4.6,6.9,10.3,6.9,17.2c0,5.9-1.7,11.1-5.2,15.5
		c-4.6,5.9-11,8.9-19.3,8.9c-8.3,0-14.8-2.8-19.3-8.5c-3.6-4.5-5.4-9.8-5.4-15.9c0-6.9,2.3-12.6,7-17.2
		C162.1,112.9,167.8,110.7,174.7,111z M175.1,113.2c-4.2,0-7.5,2.2-9.7,6.5c-1.8,3.6-2.7,8.7-2.7,15.3c0,7.9,1.4,13.8,4.2,17.5
		c1.9,2.6,4.6,4,8.1,4c2.3,0,4.3-0.6,5.9-1.7c2-1.5,3.6-3.8,4.7-7c1.1-3.2,1.7-7.4,1.7-12.5c0-6.1-0.6-10.7-1.7-13.8
		c-1.1-3-2.6-5.2-4.4-6.4C179.4,113.8,177.4,113.2,175.1,113.2z"/>
</g>
</svg>
