<?xml version="1.0" encoding="utf-8"?>
<!-- Generator: Adobe Illustrator 21.1.0, SVG Export Plug-In . SVG Version: 6.00 Build 0)  -->
<!DOCTYPE svg PUBLIC "-//W3C//DTD SVG 1.1//EN" "http://www.w3.org/Graphics/SVG/1.1/DTD/svg11.dtd">
<svg version="1.1" id="Layer_1" xmlns="http://www.w3.org/2000/svg" xmlns:xlink="http://www.w3.org/1999/xlink" x="0px" y="0px"
	 viewBox="0 0 12.9 15.2" style="enable-background:new 0 0 12.9 15.2;" xml:space="preserve">
<style type="text/css">
	.st0{fill:#FFFFFF;}
</style>
<g>
	<path class="st0" d="M11.7,0C11.4,0,1.5,0,1.2,0C1,0,0.9,0,0.7,0.1C0.3,0.3,0,0.7,0,1.1v12.9c0,0.5,0.3,0.9,0.7,1
		c0.1,0.1,0.3,0.1,0.4,0.1c0.3,0,0.6-0.1,0.8-0.3l4.4-4.3l4.4,4.3c0.2,0.2,0.5,0.3,0.8,0.3c0.2,0,0.3,0,0.4-0.1
		c0.4-0.2,0.7-0.6,0.7-1V1.1c0-0.5-0.3-0.9-0.7-1C12,0,11.8,0,11.7,0z"/>
</g>
</svg>
