<?xml version="1.0" encoding="utf-8"?>
<!-- Generator: Adobe Illustrator 21.1.0, SVG Export Plug-In . SVG Version: 6.00 Build 0)  -->
<!DOCTYPE svg PUBLIC "-//W3C//DTD SVG 1.1//EN" "http://www.w3.org/Graphics/SVG/1.1/DTD/svg11.dtd">
<svg version="1.1" id="Layer_1" xmlns="http://www.w3.org/2000/svg" xmlns:xlink="http://www.w3.org/1999/xlink" x="0px" y="0px"
	 viewBox="0 0 27.8 37" style="enable-background:new 0 0 27.8 37;" xml:space="preserve">
<style type="text/css">
	.st0{fill:#2AAEDC;}
</style>
<g>
	<path class="st0" d="M13.2,18.5c0.2-0.4,0.3-1,0.3-2c0-0.9-0.1-1.4-0.4-1.4c-0.1,0-0.1,0.4-0.1,1.3C12.9,17.3,13,18,13.2,18.5z
		 M13,21.9c0.7,1.3,1.5,2.2,2.5,3c-0.9,0.2-2,0.6-3.5,1.2l-1,0.4C11.6,25.3,12.3,23.8,13,21.9z M6.2,30.9c0.2-0.6,1-1.5,2.2-2.7
		L8.7,28c-0.5,0.7-0.9,1.3-1.4,1.9c-0.3,0.4-0.6,0.7-0.8,0.8C6.3,30.9,6.2,31,6.2,30.9z M17.9,11.6c-0.5,0-0.9-0.2-1.2-0.5
		c-0.3-0.3-0.5-0.7-0.5-1.2V0H1.7C1.3,0,0.8,0.2,0.5,0.5C0.2,0.8,0,1.3,0,1.7v33.5c0,0.5,0.2,0.9,0.5,1.2C0.8,36.8,1.3,37,1.7,37H26
		c0.5,0,0.9-0.2,1.2-0.5c0.3-0.3,0.5-0.7,0.5-1.2V11.6H17.9z M17.3,24c2.8-0.4,4.6-0.2,5.3,0.5c0.3,0.3,0.4,0.7,0.5,1.2
		c0,0.5-0.1,1-0.5,1.3c-0.3,0.4-0.8,0.6-1.4,0.6c-0.6,0-1.4-0.1-2.2-0.4s-1.7-0.6-2.4-1c-1,0.1-2.5,0.6-4.6,1.3l-1.1,0.4
		c-0.9,1.6-1.7,2.7-2.4,3.4c-0.7,0.7-1.4,1-2,1c-0.2,0-0.5-0.1-0.8-0.2c-0.3-0.1-0.6-0.3-0.8-0.5c-0.6-0.8-0.3-1.7,0.7-2.7
		c0.8-0.8,1.9-1.5,3.3-2.2l0,0c0.9-1.5,1.9-3.6,3-6.2c-0.3-1.3-0.6-2.4-0.7-3.2c-0.1-1-0.1-1.8,0.1-2.4c0.1-0.5,0.4-0.8,0.9-1
		c0.5-0.2,1-0.1,1.6,0.1c0.5,0.2,0.8,0.7,1,1.4c0.1,0.5,0.1,1.3,0,2.2c0,0.5-0.2,1.3-0.4,2.3l-0.1,0.1C14.9,21.8,15.9,23.1,17.3,24z
		 M27.2,7.6c0.3,0.3,0.5,0.7,0.5,1.2v0.4h-9.2V0h0.4c0.5,0,0.9,0.2,1.2,0.5L27.2,7.6z M21.9,26l-0.2,0.1c-0.2,0-0.5,0-0.9,0
		c-0.5-0.1-1.2-0.4-2-0.7c0.9,0,1.6,0,2.2,0.1c0.4,0,0.7,0.1,0.9,0.3C22,25.9,22,26,21.9,26z"/>
</g>
</svg>
