<?xml version="1.0" encoding="utf-8"?>
<!-- Generator: Adobe Illustrator 21.1.0, SVG Export Plug-In . SVG Version: 6.00 Build 0)  -->
<!DOCTYPE svg PUBLIC "-//W3C//DTD SVG 1.1//EN" "http://www.w3.org/Graphics/SVG/1.1/DTD/svg11.dtd">
<svg version="1.1" id="Layer_1" xmlns="http://www.w3.org/2000/svg" xmlns:xlink="http://www.w3.org/1999/xlink" x="0px" y="0px"
	 viewBox="0 0 12.8 17" style="enable-background:new 0 0 12.8 17;" xml:space="preserve">
<style type="text/css">
	.st0{fill:#AAAAAA;}
</style>
<g>
	<path class="st0" d="M11.2,2.1c0.4,0,0.8,0.2,1.1,0.5c0.3,0.3,0.5,0.7,0.5,1.1v11.7c0,0.4-0.2,0.8-0.5,1.1C12,16.8,11.6,17,11.2,17
		H1.6c-0.4,0-0.8-0.2-1.1-0.5C0.2,16.2,0,15.8,0,15.4V3.7c0-0.4,0.2-0.8,0.5-1.1c0.3-0.3,0.7-0.5,1.1-0.5h2.7c0-0.6,0.2-1.1,0.6-1.5
		S5.8,0,6.4,0s1.1,0.2,1.5,0.6c0.4,0.4,0.6,0.9,0.6,1.5H11.2z M11,15.4c0,0,0.1,0,0.1-0.1c0,0,0.1-0.1,0.1-0.1V3.9
		c0,0,0-0.1-0.1-0.1c0,0-0.1-0.1-0.1-0.1H9.6v1.2c0,0.1,0,0.2-0.1,0.3C9.4,5.3,9.3,5.3,9.2,5.3H3.6c-0.1,0-0.2,0-0.3-0.1
		C3.2,5.1,3.2,5,3.2,4.9V3.7H1.8c0,0-0.1,0-0.1,0.1c0,0-0.1,0.1-0.1,0.1v11.3c0,0,0,0.1,0.1,0.1c0,0,0.1,0.1,0.1,0.1H11z M6.4,1.3
		C6.2,1.3,6,1.4,5.8,1.6C5.7,1.7,5.6,1.9,5.6,2.1c0,0.2,0.1,0.4,0.2,0.6C6,2.8,6.2,2.9,6.4,2.9s0.4-0.1,0.6-0.2
		c0.2-0.2,0.2-0.3,0.2-0.6c0-0.2-0.1-0.4-0.2-0.6C6.8,1.4,6.6,1.3,6.4,1.3z"/>
</g>
</svg>
