<?xml version="1.0" encoding="utf-8"?>
<!-- Generator: Adobe Illustrator 21.1.0, SVG Export Plug-In . SVG Version: 6.00 Build 0)  -->
<!DOCTYPE svg PUBLIC "-//W3C//DTD SVG 1.1//EN" "http://www.w3.org/Graphics/SVG/1.1/DTD/svg11.dtd">
<svg version="1.1" id="Layer_1" xmlns="http://www.w3.org/2000/svg" xmlns:xlink="http://www.w3.org/1999/xlink" x="0px" y="0px"
	 viewBox="0 0 459.9 51.7" style="enable-background:new 0 0 459.9 51.7;" xml:space="preserve">
<style type="text/css">
	.st0{fill:#AAAAAA;}
	.st1{fill:#777777;}
</style>
<g>
	<path class="st0" d="M14.3,45.4c0-3.5-3-6.3-6.7-6.3C4,39,1,41.9,1,45.4s3,6.3,6.7,6.3C11.3,51.7,14.3,48.9,14.3,45.4z M7.7,39.8
		c3.4,0,4.8,3.1,4.8,5.6s-1.3,5.5-4.8,5.5s-4.8-3.1-4.8-5.5S4.2,39.8,7.7,39.8z"/>
	<path class="st0" d="M20.7,50.8c0.6,0.1,1.6,0.9,3.1,0.9c2.1,0,3.8-1.4,3.8-3.6c0-1.1-0.6-2.3-2.1-3l-1.9-1
		c-1.7-0.9-2.4-1.4-2.4-2.5c0-1,0.8-1.8,1.9-1.8c2.3,0,2.9,1.9,3.1,3.5h0.4v-4.4h-0.4c-0.1,0.4-0.3,0.7-0.6,0.9
		C25,39.4,24.3,39,23.2,39c-1.9,0-3.3,1.3-3.3,3c0,1.5,1.1,2.7,2.2,3.3l1.9,1c1.4,0.7,2.3,1.5,2.3,2.4c0,1.3-1.1,2.2-2.5,2.2
		c-3.7,0-3.7-3.6-3.7-3.6h-0.4v4.4h0.4C20.3,51.3,20.5,51,20.7,50.8z"/>
	<path class="st0" d="M44.6,39.4H32.5l-0.2,2.7h0.4l0.1-0.4c0.3-1.1,0.5-1.5,2.3-1.5h2.6v8.5c0,2-0.3,2.3-1.9,2.3v0.4h5.4V51
		c-1.7,0-1.9-0.3-1.9-2.3v-8.5h2.6c1.8,0,2,0.5,2.3,1.5l0.1,0.4h0.4L44.6,39.4z"/>
	<path class="st0" d="M49.5,51.4h9.8l0.2-2.7H59l-0.1,0.4c-0.3,1.1-0.5,1.5-2.3,1.5h-1.7c-1.7,0-1.9-0.3-1.9-2.3v-2.9h1
		c2,0,2.3,0.2,2.3,1.9h0.4v-4.6h-0.4c0,1.7-0.3,1.9-2.3,1.9h-1v-4.5h3c1.8,0,2,0.5,2.3,1.5l0.1,0.4h0.4l-0.2-2.6h-9.1v0.4
		c1.7,0,1.9,0.3,1.9,2.3v6.5c0,2-0.2,2.3-1.9,2.3V51.4z"/>
	<path class="st0" d="M78.7,45.4c0-3.5-3-6.3-6.7-6.3s-6.7,2.9-6.7,6.3s3,6.3,6.7,6.3S78.7,48.9,78.7,45.4z M72.1,39.8
		c3.4,0,4.8,3.1,4.8,5.6s-1.3,5.5-4.8,5.5s-4.8-3.1-4.8-5.5S68.6,39.8,72.1,39.8z"/>
	<path class="st0" d="M89,39.4h-5.3v0.4c1.7,0,1.9,0.3,1.9,2.3v6.5c0,2-0.2,2.3-1.9,2.3v0.4h5.4V51c-1.7,0-1.9-0.3-1.9-2.3v-2.5H89
		c2.8,0,4.3-1.5,4.3-3.4C93.3,40.9,91.7,39.4,89,39.4z M88.9,45.4h-1.8v-5.3h1.8c1.7,0,2.5,1.2,2.5,2.6
		C91.5,44.2,90.7,45.4,88.9,45.4z"/>
	<path class="st0" d="M99.8,47.2h4.8l1,2.2c0.5,1.1,0.1,1.5-1.6,1.5v0.4h5.5V51c-1.7,0-1.8-0.3-2.4-1.7L102.8,39h-0.3l-4.4,10.2
		c-0.6,1.4-0.7,1.7-2.4,1.7v0.4h4.7V51c-1.7,0-2-0.4-1.6-1.5L99.8,47.2z M104.3,46.5h-4.2l2.1-4.8L104.3,46.5z"/>
	<path class="st0" d="M123.6,39.4h-12.1l-0.2,2.7h0.4l0.1-0.4c0.3-1.1,0.5-1.5,2.3-1.5h2.6v8.5c0,2-0.3,2.3-1.9,2.3v0.4h5.4V51
		c-1.7,0-1.9-0.3-1.9-2.3v-8.5h2.6c1.8,0,2,0.5,2.3,1.5l0.1,0.4h0.4L123.6,39.4z"/>
	<path class="st0" d="M132,45.4h6.8v3.2c0,2-0.3,2.3-1.9,2.3v0.4h5.4V51c-1.7,0-1.9-0.3-1.9-2.3v-6.5c0-2,0.2-2.3,1.9-2.3v-0.4h-5.4
		v0.4c1.7,0,1.9,0.3,1.9,2.3v2.5H132v-2.5c0-2,0.2-2.3,1.9-2.3v-0.4h-5.4v0.4c1.7,0,1.9,0.3,1.9,2.3v6.5c0,2-0.2,2.3-1.9,2.3v0.4
		h5.4V51c-1.7,0-1.9-0.3-1.9-2.3V45.4z"/>
	<path class="st0" d="M152.5,51.4V51c-1.7,0-1.9-0.3-1.9-2.3v-6.5c0-2,0.2-2.3,1.9-2.3v-0.4h-5.4v0.4c1.7,0,1.9,0.3,1.9,2.3v6.5
		c0,2-0.2,2.3-1.9,2.3v0.4H152.5z"/>
	<path class="st0" d="M169.3,51.2v-4.4h-0.4c-0.6,2.6-2.1,4.2-4.3,4.2c-3.2,0-4.4-3.1-4.4-5.5s1.2-5.6,4.4-5.6
		c2.2,0,3.8,1.6,4.3,4.2h0.4v-4.4h-0.4c-0.1,0.5-0.4,0.9-0.7,1.1c-1-1.1-2.3-1.7-3.7-1.7c-3.4,0-6.1,2.9-6.1,6.3s2.8,6.3,6.1,6.3
		c1.4,0,2.7-0.6,3.7-1.7c0.3,0.2,0.6,0.7,0.7,1.1h0.4V51.2z"/>
	<path class="st0" d="M189.2,39.4h-5.3v0.4c1.7,0,1.9,0.3,1.9,2.3v6.5c0,2-0.2,2.3-1.9,2.3v0.4h5.4V51c-1.7,0-1.9-0.3-1.9-2.3v-2.5
		h1.8c2.8,0,4.3-1.5,4.3-3.4C193.5,40.9,191.9,39.4,189.2,39.4z M189.1,45.4h-1.8v-5.3h1.8c1.7,0,2.5,1.2,2.5,2.6
		C191.7,44.2,190.9,45.4,189.1,45.4z"/>
	<path class="st0" d="M202,45.4h6.8v3.2c0,2-0.3,2.3-1.9,2.3v0.4h5.4V51c-1.7,0-1.9-0.3-1.9-2.3v-6.5c0-2,0.2-2.3,1.9-2.3v-0.4h-5.4
		v0.4c1.7,0,1.9,0.3,1.9,2.3v2.5H202v-2.5c0-2,0.2-2.3,1.9-2.3v-0.4h-5.4v0.4c1.7,0,1.9,0.3,1.9,2.3v6.5c0,2-0.2,2.3-1.9,2.3v0.4
		h5.4V51c-1.7,0-1.9-0.3-1.9-2.3V45.4z"/>
	<path class="st0" d="M223.4,46.6l3.3-5c0.8-1.2,1.2-1.7,2.9-1.7v-0.4h-4.7v0.4c1.7,0,1.8,0.4,1.1,1.5l-2.9,4.4l-2.9-4.4
		c-0.6-0.9-0.6-1.5,1.1-1.5v-0.4h-5.7v0.4c1.4,0,2,0.4,2.9,1.7l3.3,5.1v1.9c0,2-0.2,2.3-1.9,2.3v0.4h5.4V51c-1.7,0-1.9-0.3-1.9-2.3
		L223.4,46.6L223.4,46.6z"/>
	<path class="st0" d="M234.1,50.8c0.6,0.1,1.6,0.9,3.1,0.9c2.1,0,3.8-1.4,3.8-3.6c0-1.1-0.6-2.3-2.1-3l-1.9-1
		c-1.7-0.9-2.4-1.4-2.4-2.5c0-1,0.8-1.8,1.9-1.8c2.3,0,2.9,1.9,3.1,3.5h0.4v-4.4h-0.4c-0.1,0.4-0.3,0.7-0.6,0.9
		c-0.6-0.4-1.3-0.8-2.4-0.8c-1.9,0-3.3,1.3-3.3,3c0,1.5,1.1,2.7,2.2,3.3l1.9,1c1.4,0.7,2.3,1.5,2.3,2.4c0,1.3-1.1,2.2-2.5,2.2
		c-3.7,0-3.7-3.6-3.7-3.6h-0.4v4.4h0.4C233.7,51.3,233.9,51,234.1,50.8z"/>
	<path class="st0" d="M251.7,51.4V51c-1.7,0-1.9-0.3-1.9-2.3v-6.5c0-2,0.2-2.3,1.9-2.3v-0.4h-5.4v0.4c1.7,0,1.9,0.3,1.9,2.3v6.5
		c0,2-0.2,2.3-1.9,2.3v0.4H251.7z"/>
	<path class="st0" d="M268.5,51.2v-4.4h-0.4c-0.6,2.6-2.1,4.2-4.3,4.2c-3.2,0-4.4-3.1-4.4-5.5s1.2-5.6,4.4-5.6
		c2.2,0,3.8,1.6,4.3,4.2h0.4v-4.4h-0.4c-0.1,0.5-0.4,0.9-0.7,1.1c-1-1.1-2.3-1.7-3.7-1.7c-3.4,0-6.1,2.9-6.1,6.3s2.8,6.3,6.1,6.3
		c1.4,0,2.7-0.6,3.7-1.7c0.3,0.2,0.6,0.7,0.7,1.1h0.4V51.2z"/>
	<path class="st0" d="M279.9,51.4V51c-1.7,0-1.9-0.3-1.9-2.3v-6.5c0-2,0.2-2.3,1.9-2.3v-0.4h-5.4v0.4c1.7,0,1.9,0.3,1.9,2.3v6.5
		c0,2-0.2,2.3-1.9,2.3v0.4H279.9z"/>
	<path class="st0" d="M287.6,47.2h4.8l1,2.2c0.5,1.1,0.1,1.5-1.6,1.5v0.4h5.5V51c-1.7,0-1.8-0.3-2.4-1.7L290.6,39h-0.3L286,49.2
		c-0.6,1.4-0.7,1.7-2.4,1.7v0.4h4.7V51c-1.7,0-2-0.4-1.6-1.5L287.6,47.2z M292.1,46.5H288l2.1-4.8L292.1,46.5z"/>
	<path class="st0" d="M311.2,48.9l-7.7-9.5h-2.8v0.4c1.7,0,1.9,0.3,1.9,2.3v6.5c0,2-0.2,2.3-1.9,2.3v0.4h4.6V51
		c-1.7,0-1.9-0.3-1.9-2.3v-7l8.1,10.1h0.5v-9.6c0-2,0.3-2.3,1.9-2.3v-0.4h-4.6v0.4c1.7,0,1.9,0.3,1.9,2.3V48.9z"/>
</g>
<g>
	<path class="st1" d="M23,25.5v-9.2h-0.8C21,21.6,17.7,25,13.1,25c-6.7,0-9.2-6.4-9.2-11.6S6.3,1.6,13.1,1.6c4.7,0,7.9,3.3,9.1,8.8
		H23V1.2h-0.8c-0.2,1.1-0.9,2-1.4,2.4c-2.2-2.3-5-3.6-7.9-3.6C5.8,0,0,6,0,13.3s5.8,13.3,12.9,13.3c2.9,0,5.7-1.3,7.8-3.6
		c0.5,0.4,1.2,1.4,1.4,2.4H23V25.5z"/>
	<path class="st1" d="M34.3,15.5v-2.1c0-4.2,0.5-4.9,3.3-4.9V7.7H28v0.8c2.8,0,3.3,0.7,3.3,4.9v6.7c0,4.2-0.5,4.9-3.3,4.9v0.8h9.6
		V25c-2.8,0-3.3-0.7-3.3-4.9V17h9.5v3.1c0,4.2-0.5,4.9-3.3,4.9v0.8h9.6V25c-2.8,0-3.3-0.7-3.3-4.9v-6.7c0-4.2,0.5-4.9,3.3-4.9V7.7
		h-9.6v0.8c2.8,0,3.3,0.7,3.3,4.9v2.1H34.3z"/>
	<path class="st1" d="M66.1,12.9c0,2-1.1,3.6-3.4,3.6h-2.4V9.2h2.4C65,9.2,66.1,10.9,66.1,12.9z M64.3,18c3.2-0.4,5.1-2.5,5.1-5.1
		c0-3-2.4-5.2-6.7-5.2H54v0.8c2.8,0,3.3,0.7,3.3,4.9v6.7c0,4.2-0.5,4.9-3.3,4.9v0.8h9.6V25c-2.8,0-3.3-0.7-3.3-4.9V18h1.2l5.7,7.8
		h5.4V25c-2-0.3-3.9-1.9-5.6-3.9L64.3,18z"/>
	<path class="st1" d="M83.6,25.9v-0.8c-2.8,0-3.3-0.7-3.3-4.9v-6.7c0-4.2,0.5-4.9,3.3-4.9V7.7H74v0.8c2.8,0,3.3,0.7,3.3,4.9v6.7
		c0,4.2-0.5,4.9-3.3,4.9v0.8h9.6V25.9z"/>
	<path class="st1" d="M101.1,20.9c0-1.6-0.9-3.5-3.3-4.7L95,14.7c-2.6-1.3-3.7-2.1-3.7-3.6c0-1.6,1.4-2.4,3-2.4c3,0,4.2,3,4.4,5.5
		h0.8V7h-0.8c-0.1,0.7-0.4,1.1-0.7,1.3C97.1,7.7,95.8,7,94.1,7c-3.1,0-5.3,2.1-5.3,4.8c0,2.4,1.4,4.1,3.4,5.1l2.9,1.5
		c2.3,1.1,3.4,2.3,3.4,3.7c0,1.8-1.4,2.8-3.2,2.8c-3.2,0-5.4-2-5.8-5.6h-0.8v7.2h0.8c0.1-0.7,0.5-1.3,0.8-1.6
		c0.8,0.5,2.5,1.6,4.7,1.6C98.3,26.6,101.1,24.3,101.1,20.9z"/>
	<path class="st1" d="M111.3,9.4v10.8c0,4.2-0.5,4.9-3.4,4.9v0.8h9.7v-0.8c-2.8,0-3.4-0.7-3.4-4.9V9.4h2.4c3.9,0,4.2,0.7,4.7,2.7
		l0.2,0.8h0.8L122,7.7h-18.7l-0.3,5.2h0.8l0.2-0.8c0.5-2,0.8-2.7,4.7-2.7H111.3z"/>
	<path class="st1" d="M144.7,16.8c0-5.3-4.6-9.8-10.2-9.8s-10.2,4.5-10.2,9.8c0,5.4,4.6,9.8,10.2,9.8S144.7,22.2,144.7,16.8z
		 M141.3,16.8c0,3.7-1.8,8.2-6.8,8.2s-6.8-4.5-6.8-8.2c0-3.6,1.8-8.2,6.8-8.2C139.5,8.6,141.3,13.2,141.3,16.8z"/>
	<path class="st1" d="M161.1,12.9c0,2-1.1,3.6-3.4,3.6h-2.4V9.2h2.4C160,9.2,161.1,10.9,161.1,12.9z M155.3,20.2v-2.1h2.4
		c4.3,0,6.7-2.3,6.7-5.2c0-3-2.4-5.2-6.7-5.2H149v0.8c2.8,0,3.3,0.7,3.3,4.9v6.7c0,4.2-0.5,4.9-3.3,4.9v0.8h9.6V25
		C155.8,25.1,155.3,24.4,155.3,20.2z"/>
	<path class="st1" d="M174.3,15.5v-2.1c0-4.2,0.5-4.9,3.3-4.9V7.7H168v0.8c2.8,0,3.3,0.7,3.3,4.9v6.7c0,4.2-0.5,4.9-3.3,4.9v0.8h9.6
		V25c-2.8,0-3.3-0.7-3.3-4.9V17h9.5v3.1c0,4.2-0.5,4.9-3.3,4.9v0.8h9.6V25c-2.8,0-3.3-0.7-3.3-4.9v-6.7c0-4.2,0.5-4.9,3.3-4.9V7.7
		h-9.6v0.8c2.8,0,3.3,0.7,3.3,4.9v2.1H174.3z"/>
	<path class="st1" d="M204.1,24.4h-0.5c-2.8,0-3.3-0.7-3.3-4.9v-2.4h0.3c4.2,0,4.5,0.5,4.5,3.3h0.8v-8.2H205c0,2.8-0.3,3.3-4.5,3.3
		h-0.3V9.2h2.8c3.8,0,4.4,0.8,4.8,2.7l0.2,0.8h0.9l-0.3-5h-5.4h-9.3v0.8c2.8,0,3.3,0.7,3.3,4.9v6.7c0,4.2-0.5,4.9-3.3,4.9v0.8h15.7
		l0.3-5.1h-0.8l-0.2,0.8C208.4,23.7,207.9,24.4,204.1,24.4z"/>
	<path class="st1" d="M226.1,12.9c0,2-1.1,3.6-3.4,3.6h-2.4V9.2h2.4C225,9.2,226.1,10.9,226.1,12.9z M224.3,18
		c3.2-0.4,5.1-2.5,5.1-5.1c0-3-2.4-5.2-6.7-5.2H214v0.8c2.8,0,3.3,0.7,3.3,4.9v6.7c0,4.2-0.5,4.9-3.3,4.9v0.8h9.6V25
		c-2.8,0-3.3-0.7-3.3-4.9V18h1.2l5.7,7.8h5.4V25c-2-0.3-3.9-1.9-5.6-3.9L224.3,18z"/>
	<path class="st1" d="M256,24.4h-1c-3.5,0-4-0.7-4-4.9v-6.2h5.1c3.7,0,5.4,2.5,5.4,5.6C261.4,21.9,259.7,24.4,256,24.4z M251,2.3
		h3.7c3.2,0,4.6,2.1,4.6,4.7s-1.5,4.7-4.6,4.7H251V2.3z M259.7,12.2c1.9-1.1,3.3-3,3.3-5.2c0-3.5-2.8-6.3-8.1-6.3h-11.3v0.9
		c3.5,0,4,0.7,4,4.9v13.7c0,4.2-0.5,4.9-4,4.9V26h12.5c5.8,0,9-3.2,9-7.1C265.1,15.8,263,13.2,259.7,12.2z"/>
	<path class="st1" d="M282.1,12.9c0,2-1.1,3.6-3.4,3.6h-2.4V9.2h2.4C281,9.2,282.1,10.9,282.1,12.9z M280.3,18
		c3.2-0.4,5.1-2.5,5.1-5.1c0-3-2.4-5.2-6.7-5.2H270v0.8c2.8,0,3.3,0.7,3.3,4.9v6.7c0,4.2-0.5,4.9-3.3,4.9v0.8h9.6V25
		c-2.8,0-3.3-0.7-3.3-4.9V18h1.2l5.7,7.8h5.4V25c-2-0.3-3.9-1.9-5.6-3.9L280.3,18z"/>
	<path class="st1" d="M310.7,16.8c0-5.3-4.6-9.8-10.2-9.8s-10.2,4.5-10.2,9.8c0,5.4,4.6,9.8,10.2,9.8S310.7,22.2,310.7,16.8z
		 M307.3,16.8c0,3.7-1.8,8.2-6.8,8.2s-6.8-4.5-6.8-8.2c0-3.6,1.8-8.2,6.8-8.2C305.5,8.6,307.3,13.2,307.3,16.8z"/>
	<path class="st1" d="M327.8,7.7H327l-4.2,12.6l-2.8-8.6c-0.8-2.6-0.2-3.2,2.3-3.2V7.7H313v0.8c2.4,0,3.1,0.6,4.1,3.7l4.7,14.4h0.5
		l4.4-13.1l4.3,13.1h0.5l4.8-14.4c1-3.1,1.7-3.7,4.3-3.7V7.7h-7.9v0.8c2.7,0,3.1,0.7,2.2,3.2l-2.9,8.6L327.8,7.7z"/>
	<path class="st1" d="M345.3,13.4v6.7c0,4.2-0.5,4.9-3.3,4.9v0.8h8.2V25c-2.8,0-3.3-0.7-3.3-4.9v-8.2L359,26.6h0.8V13.4
		c0-4.2,0.5-4.9,3.3-4.9V7.7H355v0.8c2.8,0,3.3,0.7,3.3,4.9V21L347.1,7.7h-5.2v0.8C344.8,8.6,345.3,9.2,345.3,13.4z"/>
	<path class="st1" d="M376.6,25.9H388c9.8,0,14-5.7,14-12.6s-4.2-12.6-14-12.6h-11.4v0.9c3.5,0,4,0.7,4,4.9v13.7
		c0,4.2-0.5,4.9-4,4.9V25.9z M384,2.3c0,0,3.6,0,4.1,0c8.2,0,10,6.1,10,11s-1.8,11-10,11h-0.2c-3.4,0-3.9-0.7-3.9-4.9V2.3z"/>
	<path class="st1" d="M413.9,24.1c0-1.2-1.1-2.2-2.4-2.2s-2.3,1-2.3,2.2s1,2.2,2.3,2.2C412.8,26.3,413.9,25.2,413.9,24.1z"/>
	<path class="st1" d="M448.3,13.3C448.3,6,442,0,434.3,0s-14,6-14,13.3s6.3,13.3,14,13.3S448.3,20.6,448.3,13.3z M434.3,1.6
		c7.2,0,10,6.5,10,11.7s-2.8,11.6-10,11.6c-7.3,0-10-6.4-10-11.6S427,1.6,434.3,1.6z"/>
	<path class="st1" d="M459.9,24.1c0-1.2-1.1-2.2-2.4-2.2s-2.3,1-2.3,2.2s1,2.2,2.3,2.2C458.8,26.3,459.9,25.2,459.9,24.1z"/>
</g>
</svg>
